<?xml version="1.0" standalone="no"?>
<!DOCTYPE svg PUBLIC "-//W3C//DTD SVG 20010904//EN"
 "http://www.w3.org/TR/2001/REC-SVG-20010904/DTD/svg10.dtd">
<svg version="1.0" xmlns="http://www.w3.org/2000/svg"
 width="300px" height="300px" viewBox="0 0 512.000000 512.000000" 
 preserveAspectRatio="xMidYMid meet" >

<g transform="translate(0.000000,512.000000) scale(0.100000,-0.100000)"
fill="hsl(0,0%,100%)" stroke="black">
<path fill="hsl(0,0%,100%)" d="M3039 4987 c-126 -68 -371 -273 -405 -340 -26 -49 9 -107 66 -107 12
0 51 28 93 68 138 129 268 228 286 218 11 -7 71 -112 71 -124 0 -4 -28 -29
-63 -55 -194 -142 -371 -358 -467 -571 -38 -83 -39 -118 -3 -146 15 -12 23
-24 17 -29 -23 -20 -236 -162 -239 -159 -1 1 -16 67 -32 146 l-30 142 37 0
c23 0 43 7 52 18 8 9 43 74 77 145 58 118 61 129 49 155 -7 15 -26 33 -41 40
-45 22 -75 -1 -124 -93 -23 -44 -44 -84 -45 -89 -2 -4 -21 -1 -42 8 -81 34
-136 12 -136 -53 0 -30 87 -471 111 -563 10 -41 33 -58 74 -58 30 0 509 319
525 350 26 48 0 93 -68 120 -41 16 -39 24 18 123 90 158 253 329 414 434 84
54 96 68 96 104 0 28 -134 273 -172 316 -31 34 -55 34 -119 0z"/>
<path fill="hsl(0,0%,100%)"  d="M3759 4597 c-23 -15 -48 -49 -79 -109 -44 -87 -45 -88 -104 -109
l-58 -22 -82 26 c-89 29 -135 33 -169 16 -32 -16 -226 -209 -243 -241 -21 -40
-17 -93 12 -180 l26 -78 -23 -59 c-23 -58 -25 -60 -101 -97 -43 -21 -91 -51
-106 -67 l-27 -28 -3 -177 c-4 -219 -2 -224 130 -292 86 -44 88 -46 109 -102
l21 -57 -26 -78 c-29 -88 -33 -141 -12 -181 21 -40 217 -229 249 -241 43 -16
77 -13 157 14 89 30 92 30 155 4 48 -20 53 -26 95 -107 66 -129 74 -132 274
-132 208 0 213 3 278 126 45 86 48 90 105 115 l58 26 84 -29 c106 -35 136 -35
192 1 61 39 206 191 224 234 20 49 19 68 -13 167 l-28 85 20 53 c20 51 24 55
109 99 131 68 132 70 132 283 0 214 -2 218 -132 283 -82 42 -86 45 -107 98
l-22 54 28 88 c33 103 34 126 9 175 -24 46 -207 227 -245 242 -43 16 -83 12
-171 -17 l-82 -26 -54 22 c-52 22 -56 27 -99 109 -67 129 -74 132 -280 132
-157 0 -169 -1 -201 -23z m360 -204 c48 -95 66 -112 161 -152 91 -38 132 -39
232 -5 l77 25 85 -85 84 -86 -29 -90 c-16 -50 -29 -98 -29 -108 0 -29 68 -184
92 -210 13 -13 58 -42 101 -63 l77 -39 0 -120 0 -120 -77 -39 c-43 -21 -88
-50 -101 -63 -24 -26 -92 -181 -92 -210 0 -10 13 -58 29 -107 l28 -89 -86 -86
-86 -86 -93 30 c-104 34 -117 33 -229 -16 -78 -34 -98 -55 -144 -146 l-39 -78
-123 0 -123 0 -39 80 c-22 44 -48 89 -60 99 -20 19 -147 75 -196 86 -16 4 -61
-5 -120 -24 l-94 -31 -85 85 -84 84 27 84 c15 46 27 98 27 116 0 18 -16 71
-36 117 -40 93 -58 111 -161 163 l-63 31 0 123 0 122 88 45 87 45 39 80 c52
106 56 151 21 255 l-27 82 85 85 85 85 82 -27 c104 -35 149 -31 255 21 l80 39
45 87 45 88 122 0 123 0 39 -77z"/>
<path fill="hsl(0,0%,100%)" d="M3828 3984 c-92 -22 -176 -70 -249 -143 -281 -281 -177 -752 197
-887 36 -13 78 -24 93 -24 41 0 74 30 74 68 0 41 -26 69 -77 83 -115 30 -210
109 -263 218 -25 50 -28 67 -28 161 0 88 4 113 23 154 93 202 327 291 523 199
190 -89 273 -298 198 -499 -17 -47 -39 -76 -101 -137 -85 -85 -97 -118 -58
-157 31 -31 76 -26 132 18 146 111 228 315 200 498 -15 93 -42 160 -99 242
-123 175 -351 258 -565 206z"/>
<path fill="hsl(0,0%,100%)" d="M1382 3664 c-59 -29 -88 -66 -150 -190 -22 -44 -46 -85 -54 -90 -7
-6 -50 -25 -94 -44 l-81 -33 -109 37 c-124 41 -188 45 -249 17 -53 -25 -299
-274 -320 -323 -23 -58 -18 -119 21 -239 l36 -112 -32 -81 c-18 -44 -37 -87
-43 -94 -6 -8 -47 -32 -91 -54 -118 -59 -154 -86 -184 -137 -26 -45 -27 -51
-30 -235 -5 -283 7 -309 190 -402 l111 -57 27 -61 c57 -128 57 -120 16 -242
-65 -196 -51 -238 143 -427 116 -113 135 -128 186 -142 65 -19 90 -16 216 26
48 16 98 29 111 29 13 0 59 -15 103 -33 l80 -33 55 -106 c96 -185 121 -200
350 -206 278 -7 323 12 411 181 31 60 62 114 70 122 18 18 156 75 182 75 11 0
69 -16 128 -35 121 -39 130 -40 197 -23 41 10 65 29 189 151 198 195 208 221
149 403 -20 61 -36 120 -36 131 0 23 54 159 72 180 6 8 60 39 120 70 174 89
193 129 186 412 -3 146 -6 171 -25 206 -31 59 -67 87 -178 143 -64 32 -105 59
-112 73 -26 51 -63 149 -63 165 0 10 16 67 36 128 41 127 41 180 0 250 -34 58
-264 282 -309 301 -58 24 -127 18 -248 -21 l-110 -35 -90 37 -90 37 -55 108
c-60 118 -108 171 -171 188 -21 6 -121 11 -224 11 -179 0 -187 -1 -237 -26z
m429 -134 c10 -6 42 -57 70 -113 65 -129 99 -161 218 -210 135 -55 156 -56
287 -13 61 20 124 36 139 36 22 0 51 -23 141 -111 62 -61 118 -124 124 -140
10 -24 7 -43 -24 -136 -48 -145 -47 -177 9 -312 25 -60 57 -119 71 -132 14
-13 74 -49 132 -79 71 -37 111 -63 119 -80 9 -17 13 -78 13 -181 0 -190 1
-188 -139 -259 -53 -26 -110 -63 -127 -82 -44 -46 -114 -218 -114 -278 0 -26
15 -90 35 -150 19 -57 35 -113 35 -124 0 -23 -235 -264 -265 -272 -11 -2 -67
11 -124 31 -128 43 -193 46 -266 11 -28 -12 -68 -29 -89 -36 -63 -21 -113 -75
-166 -179 -69 -139 -63 -135 -239 -139 -212 -5 -204 -8 -273 122 -31 60 -69
121 -84 137 -15 15 -70 47 -123 70 -133 59 -183 62 -320 15 -58 -20 -112 -36
-120 -36 -8 0 -72 57 -143 127 -95 94 -128 133 -128 152 0 13 16 73 35 132 19
60 35 123 35 141 0 46 -84 246 -118 281 -15 16 -75 53 -134 83 -59 29 -112 63
-118 73 -6 11 -10 89 -10 183 0 133 3 168 16 186 8 12 60 45 113 72 54 27 112
62 128 79 35 35 111 205 120 268 4 33 -3 69 -32 162 -23 72 -35 128 -32 142 4
14 60 77 125 142 95 93 124 117 147 117 15 0 78 -16 139 -36 83 -27 121 -35
152 -30 61 8 227 83 264 119 17 17 52 72 77 122 71 143 57 135 255 135 98 0
177 -4 189 -10z"/>
<path fill="hsl(0,0%,100%)" d="M1532 3357 c-31 -33 -29 -80 4 -106 21 -17 41 -21 96 -21 60 0 72 3
93 25 14 13 25 36 25 50 0 14 -11 37 -25 50 -21 22 -33 25 -98 25 -64 0 -76
-3 -95 -23z"/>
<path fill="hsl(0,0%,100%)" d="M705 2999 c-30 -28 -57 -60 -61 -71 -9 -29 14 -75 45 -88 37 -15 66
-2 121 54 53 55 61 105 21 137 -38 31 -67 24 -126 -32z"/>
<path fill="hsl(0,0%,100%)" d="M2425 3025 c-41 -40 -33 -73 30 -135 41 -41 61 -53 84 -53 43 0 71
28 71 71 0 29 -9 44 -53 89 -62 61 -93 68 -132 28z"/>
<path fill="hsl(0,0%,100%)" d="M1485 2745 c-38 -9 -113 -36 -165 -62 -79 -38 -109 -60 -181 -132
-73 -73 -93 -100 -132 -181 -51 -109 -66 -161 -73 -268 -14 -197 63 -393 212
-539 56 -55 69 -63 103 -63 46 0 71 24 71 69 0 27 -12 44 -68 100 -225 223
-228 555 -7 776 82 82 144 118 251 145 135 35 260 19 386 -47 324 -170 389
-606 129 -863 -109 -108 -233 -160 -382 -160 -62 0 -81 -4 -103 -21 -34 -27
-36 -77 -3 -107 20 -19 35 -22 112 -22 111 0 196 20 305 73 69 34 102 58 175
132 74 73 99 106 133 175 59 122 75 199 69 345 -3 103 -8 132 -35 203 -78 209
-238 362 -450 429 -99 31 -248 39 -347 18z"/>
<path fill="hsl(0,0%,100%)" d="M331 2154 c-17 -21 -21 -41 -21 -96 0 -60 3 -72 25 -93 13 -14 36
-25 50 -25 14 0 37 11 50 25 22 21 25 33 25 100 0 62 -4 79 -20 95 -30 30 -83
27 -109 -6z"/>
<path fill="hsl(0,0%,100%)" d="M2817 2162 c-13 -14 -17 -38 -17 -100 0 -75 2 -82 26 -101 15 -12 33
-21 40 -21 32 0 64 25 75 58 16 47 7 137 -16 162 -24 26 -85 27 -108 2z"/>
<path fill="hsl(0,0%,100%)" d="M660 1263 c-31 -40 -20 -78 39 -135 60 -58 106 -65 140 -22 32 40 26
60 -36 125 -46 49 -62 59 -89 59 -24 0 -38 -7 -54 -27z"/>
<path fill="hsl(0,0%,100%)" d="M2453 1237 c-59 -60 -69 -101 -33 -137 37 -37 79 -27 138 33 59 59
68 101 32 137 -36 36 -77 26 -137 -33z"/>
<path fill="hsl(0,0%,100%)" d="M1565 893 c-55 -14 -75 -83 -35 -123 17 -17 33 -20 100 -20 69 0 82
3 100 22 37 40 21 97 -34 118 -28 10 -94 12 -131 3z"/>
<path fill="hsl(0,0%,100%)" d="M3395 1693 c-215 -185 -230 -200 -233 -235 -4 -43 24 -74 75 -84 18
-3 33 -10 33 -15 0 -5 -22 -54 -50 -108 -140 -281 -384 -547 -640 -701 -120
-72 -120 -81 -3 -280 104 -179 113 -185 198 -140 138 73 339 233 484 386 169
178 290 355 399 584 36 74 65 136 66 137 1 1 27 -6 59 -14 55 -16 59 -16 85 4
16 12 28 32 30 49 5 37 -166 568 -191 594 -10 12 -31 20 -50 20 -28 0 -66 -29
-262 -197z m274 -153 c22 -69 41 -128 41 -133 0 -4 -15 -7 -33 -7 -45 0 -58
-17 -107 -135 -111 -265 -256 -481 -460 -685 -99 -99 -237 -213 -333 -275 -34
-22 -42 -16 -82 61 l-30 56 24 16 c163 109 378 312 486 457 119 159 257 419
272 510 5 30 1 39 -24 62 l-29 27 109 93 c61 52 113 90 117 86 4 -4 26 -64 49
-133z"/>
</g>
</svg>
