<?xml version="1.0" encoding="UTF-8"?>
<svg version="1.1" xmlns="http://www.w3.org/2000/svg" width="512" height="512" >
<path d="M0 0 C0.99868909 -0.00297112 1.99737819 -0.00594224 3.02633059 -0.0090034 C6.35908455 -0.01764635 9.69180239 -0.01919493 13.02456665 -0.02069092 C15.42015662 -0.02532233 17.81574585 -0.03034742 20.21133423 -0.03573608 C26.71186048 -0.04883371 33.21237985 -0.05533771 39.71291685 -0.05974674 C43.78023756 -0.06251761 47.84755591 -0.06675656 51.91487503 -0.07125092 C63.19913521 -0.08343966 74.48339352 -0.09373856 85.76766014 -0.09712601 C86.48888342 -0.09734557 87.2101067 -0.09756514 87.95318524 -0.09779136 C88.67603937 -0.09800964 89.39889351 -0.09822791 90.14365232 -0.09845281 C91.60818887 -0.09889626 93.07272542 -0.09934282 94.53726196 -0.09979248 C95.2637076 -0.10001391 95.99015323 -0.10023534 96.73861237 -0.10046348 C108.48858398 -0.10440477 120.23849332 -0.12184006 131.98844092 -0.145152 C144.08217627 -0.16895013 156.17588049 -0.18133175 168.26963961 -0.18249393 C175.04751456 -0.18340615 181.82530843 -0.18904286 188.60316086 -0.20731354 C194.98736375 -0.22388814 201.37141365 -0.2259044 207.75563049 -0.21717453 C210.08628883 -0.21640908 212.41695571 -0.22068117 214.74759293 -0.23063278 C258.07962913 -0.40465983 296.27158717 14.14096113 327.37026978 44.66778564 C335.82133285 53.25263113 342.72223089 62.77794547 348.81997681 73.14044189 C349.16657349 73.72519287 349.51317017 74.30994385 349.87026978 74.91241455 C362.01010239 95.68527045 368.98307225 119.22610484 368.9604187 143.32046509 C368.96487538 144.81849873 368.96487538 144.81849873 368.9694221 146.34679568 C368.97806505 149.67954963 368.97961363 153.01226748 368.98110962 156.34503174 C368.98574103 158.7406217 368.99076612 161.13621093 368.99615479 163.53179932 C369.00925242 170.03232557 369.01575642 176.53284494 369.02016544 183.03338194 C369.02293631 187.10070264 369.02717527 191.168021 369.03166962 195.23534012 C369.04385836 206.5196003 369.05415726 217.80385861 369.05754471 229.08812523 C369.05776427 229.80934851 369.05798384 230.53057179 369.05821006 231.27365033 C369.05842834 231.99650446 369.05864662 232.7193586 369.05887151 233.46411741 C369.05931496 234.92865396 369.05976152 236.3931905 369.06021118 237.85772705 C369.06043261 238.58417268 369.06065404 239.31061832 369.06088218 240.05907746 C369.06482347 251.80904907 369.08225876 263.55895841 369.1055707 275.308906 C369.12936883 287.40264135 369.14175045 299.49634558 369.14291263 311.5901047 C369.14382485 318.36797965 369.14946156 325.14577352 369.16773224 331.92362595 C369.18430684 338.30782883 369.1863231 344.69187874 369.17759323 351.07609558 C369.17682778 353.40675392 369.18109987 355.7374208 369.19105148 358.06805801 C369.36507853 401.40009422 354.81945758 439.59205226 324.29263306 470.69073486 C315.70778757 479.14179794 306.18247323 486.04269597 295.81997681 492.14044189 C295.23522583 492.48703857 294.65047485 492.83363525 294.04800415 493.19073486 C273.27514825 505.33056748 249.73431386 512.30353734 225.63995361 512.28088379 C224.64126452 512.28385491 223.64257542 512.28682603 222.61362302 512.28988719 C219.28086907 512.29853014 215.94815122 512.30007872 212.61538696 512.30157471 C210.219797 512.30620611 207.82420777 512.31123121 205.42861938 512.31661987 C198.92809313 512.3297175 192.42757376 512.3362215 185.92703676 512.34063053 C181.85971606 512.3434014 177.7923977 512.34764035 173.72507858 512.3521347 C162.4408184 512.36432345 151.15656009 512.37462235 139.87229347 512.3780098 C138.79045855 512.37833915 138.79045855 512.37833915 137.68676838 512.37867515 C136.96391424 512.37889343 136.2410601 512.3791117 135.49630129 512.3793366 C134.03176474 512.37978005 132.5672282 512.38022661 131.10269165 512.38067627 C130.37624602 512.3808977 129.64980038 512.38111913 128.90134124 512.38134727 C117.15136963 512.38528855 105.40146029 512.40272385 93.6515127 512.42603579 C81.55777735 512.44983392 69.46407312 512.46221554 57.370314 512.46337771 C50.59243905 512.46428994 43.81464518 512.46992664 37.03679276 512.48819733 C30.65258987 512.50477193 24.26853996 512.50678819 17.88432312 512.49805832 C15.55366478 512.49729287 13.2229979 512.50156496 10.89236069 512.51151657 C-32.43967552 512.68554362 -70.63163355 498.13992266 -101.73031616 467.61309814 C-110.18137924 459.02825266 -117.08227727 449.50293832 -123.18002319 439.14044189 C-123.52661987 438.55569092 -123.87321655 437.97093994 -124.23031616 437.36846924 C-139.15366328 411.83265263 -143.96888288 384.22270078 -143.82699585 354.93341064 C-143.83379502 352.5269607 -143.84271086 350.12051597 -143.85354614 347.71408081 C-143.87607264 341.2594098 -143.86761464 334.80514453 -143.85165071 328.35046768 C-143.84267249 324.30057544 -143.84447118 320.25073325 -143.84910202 316.20083618 C-143.84986819 315.52315191 -143.85063435 314.84546765 -143.85142373 314.14724749 C-143.85302277 312.7694531 -143.85464384 311.39165874 -143.85628669 310.0138644 C-143.87045789 297.17115175 -143.8542884 284.32861914 -143.82728486 271.48593605 C-143.80495393 260.5272569 -143.80883651 249.56884283 -143.83187866 238.61016846 C-143.85879081 225.80542442 -143.86908541 213.00083715 -143.85381734 200.19606876 C-143.85222502 198.82406174 -143.85065316 197.45205468 -143.84910202 196.08004761 C-143.84833064 195.40544076 -143.84755927 194.73083391 -143.84676451 194.03578442 C-143.84249339 189.33985864 -143.8498857 184.64406472 -143.86149979 179.94815063 C-143.87611257 173.59803788 -143.86562045 167.2484178 -143.8370285 160.89835739 C-143.83050645 158.58998806 -143.83215941 156.2815761 -143.84334183 153.97322464 C-144.02984188 111.50758545 -129.37532516 73.193066 -99.75082397 42.66778564 C-73.70742027 16.77431011 -36.88675524 -0.03468097 0 0 Z " fill="#FF364E" transform="translate(143.18002319335938,-0.14044189453125)"/>
<path style="fill:black"  d="M0 0 C0.78944 -0.00570007 1.57888 -0.01140015 2.39224243 -0.01727295 C4.05786832 -0.02666461 5.7235123 -0.03323352 7.38916016 -0.03710938 C9.87307522 -0.04671647 12.35612559 -0.07775416 14.83984375 -0.109375 C29.35540554 -0.20712836 43.86265547 1.06547405 57.4765625 6.453125 C58.26667725 6.75686035 59.05679199 7.0605957 59.87084961 7.37353516 C70.72982948 11.69484084 79.2184471 18.05406868 87.5390625 26.203125 C88.16554688 26.79351562 88.79203125 27.38390625 89.4375 27.9921875 C98.71039812 37.51683851 104.62321441 52.08984555 105.5390625 65.203125 C105.61640625 66.26273437 105.69375 67.32234375 105.7734375 68.4140625 C106.58464461 89.55051431 97.76471916 109.81355098 83.5390625 125.203125 C82.95382812 125.85667969 82.36859375 126.51023437 81.765625 127.18359375 C69.81515695 139.89148584 52.8047369 148.30013448 35.5390625 150.203125 C33.20602364 150.24019414 30.87191131 150.25067351 28.5390625 150.203125 C28.5390625 150.863125 28.5390625 151.523125 28.5390625 152.203125 C29.11970459 152.45199463 29.70034668 152.70086426 30.29858398 152.95727539 C38.20852219 157.35570785 42.8279166 166.58423861 46.9765625 174.265625 C47.5329541 175.27061035 48.0893457 176.2755957 48.66259766 177.31103516 C50.29909057 180.26918372 51.92142169 183.23463377 53.5390625 186.203125 C63.0744473 205.21330991 63.0744473 205.21330991 79.515625 217.6640625 C84.73761839 219.05524993 89.76833533 218.80450404 94.8515625 217.078125 C99.24982522 214.00956961 102.42781474 210.19334697 104.5390625 205.203125 C105.8590625 205.533125 107.1790625 205.863125 108.5390625 206.203125 C112.09186333 219.46268524 113.01375465 237.40286612 107.5390625 250.203125 C107.06339844 251.32847656 106.58773437 252.45382812 106.09765625 253.61328125 C99.94593711 267.31241037 90.39882259 277.2182286 76.5390625 283.203125 C66.81408972 285.81360919 52.69853383 286.07012734 43.62890625 281.52734375 C39.66842909 279.01780776 36.05571626 276.30492849 32.5390625 273.203125 C31.85972656 272.61789062 31.18039062 272.03265625 30.48046875 271.4296875 C17.30263483 259.25367721 10.11967337 240.41364275 3.9140625 223.953125 C3.4039482 222.62046532 2.89302149 221.28811637 2.38134766 219.95605469 C-0.09556381 213.49447175 -2.53374735 207.01899178 -4.94282532 200.53182983 C-6.3163317 196.83609218 -7.69807738 193.14349529 -9.0859375 189.453125 C-9.35580475 188.73549988 -9.625672 188.01787476 -9.90371704 187.27850342 C-14.25586802 175.76988524 -19.24241417 164.84339743 -25.4609375 154.203125 C-25.7909375 154.203125 -26.1209375 154.203125 -26.4609375 154.203125 C-27.54894445 159.03630482 -28.63312761 163.87032264 -29.71411133 168.70507812 C-30.08063134 170.34201953 -30.44810941 171.97874678 -30.81665039 173.61523438 C-34.32715151 189.20894741 -37.45734884 204.77781903 -39.5234375 220.640625 C-39.78592285 222.59536743 -39.78592285 222.59536743 -40.05371094 224.58959961 C-40.98982587 231.83773402 -41.61391631 239.03154822 -41.87890625 246.3359375 C-41.9093251 247.0858345 -41.93974396 247.83573151 -41.97108459 248.60835266 C-42.11535112 252.24551238 -42.21810122 255.87550009 -42.25024414 259.51538086 C-42.5691677 269.07310285 -42.5691677 269.07310285 -45.18164062 272.38354492 C-47.21998017 273.9470118 -49.14683854 275.09835023 -51.4609375 276.203125 C-52.17088867 276.59185791 -52.88083984 276.98059082 -53.61230469 277.38110352 C-55.53707971 278.43220557 -57.44162242 279.34421494 -59.4609375 280.203125 C-60.02756104 280.45537842 -60.59418457 280.70763184 -61.17797852 280.9675293 C-66.32962387 283.11112848 -70.84227271 283.71524414 -76.3984375 283.640625 C-77.19040527 283.63305176 -77.98237305 283.62547852 -78.79833984 283.61767578 C-84.77408093 283.44898084 -89.41804088 282.56855081 -94.4609375 279.203125 C-95.15316406 278.77902344 -95.84539062 278.35492188 -96.55859375 277.91796875 C-104.04422174 272.89490249 -109.00521253 265.36909381 -111.07421875 256.60546875 C-113.36255477 236.47273469 -110.58981199 216.6509468 -105.4609375 197.203125 C-105.25968262 196.43178223 -105.05842773 195.66043945 -104.85107422 194.86572266 C-98.93108288 172.58160059 -90.92851427 150.87704284 -83.44952393 129.08380127 C-83.12329041 128.1331781 -82.79705688 127.18255493 -82.4609375 126.203125 C-81.99672394 124.85066681 -81.99672394 124.85066681 -81.52313232 123.47088623 C-79.82797245 118.52824621 -78.14217314 113.58261022 -76.47055054 108.63195801 C-75.97625228 107.17346936 -75.47856438 105.71612365 -74.97695923 104.26013184 C-72.28356808 96.43958608 -69.96630604 88.63323247 -68.15234375 80.55859375 C-67.98426208 79.81175827 -67.81618042 79.06492279 -67.64300537 78.29545593 C-66.17398531 71.44545718 -65.58022553 65.02261717 -67.4609375 58.203125 C-74.16520996 57.56462286 -77.78656681 58.2792029 -83.203125 62.30859375 C-91.77446327 69.50080666 -98.17332733 77.52924681 -103.7890625 87.171875 C-104.19060547 87.85813965 -104.59214844 88.5444043 -105.00585938 89.25146484 C-105.80006851 90.62009186 -106.58295071 91.99536407 -107.35351562 93.37744141 C-108.30824542 95.03540911 -109.37651478 96.62692919 -110.4609375 98.203125 C-111.4509375 98.203125 -112.4409375 98.203125 -113.4609375 98.203125 C-114.26930358 75.79342102 -106.79973242 57.21230278 -92.4609375 40.203125 C-91.82671875 39.37296875 -91.1925 38.5428125 -90.5390625 37.6875 C-86.77730372 33.19035981 -82.07346221 29.78789253 -77.4609375 26.203125 C-76.67589844 25.59082031 -75.89085937 24.97851562 -75.08203125 24.34765625 C-54.17347873 8.88735599 -25.88515598 0.14998882 0 0 Z " fill="#FFEFF3" transform="translate(257.4609375,113.796875)"/>
<path style="fill:white" d="M0 0 C31.88688643 -0.82994432 31.88688643 -0.82994432 42 8 C49.52958397 16.20053699 51.68884492 22.71729207 51.3671875 33.85546875 C50.65977526 44.80029011 44.77348535 52.69605403 37 60 C29.3016169 66.71437925 21.29930778 71.16134545 10.91796875 71.09765625 C9.98662109 71.09443359 9.05527344 71.09121094 8.09570312 71.08789062 C6.65614258 71.07532227 6.65614258 71.07532227 5.1875 71.0625 C4.20845703 71.05798828 3.22941406 71.05347656 2.22070312 71.04882812 C-0.18626111 71.03708684 -2.59309857 71.02066419 -5 71 C-4.25731831 64.1380952 -3.4011408 57.29616292 -2.5 50.453125 C-1.12894932 38.89558571 -0.74887388 27.31000653 -0.4375 15.6875 C-0.39416715 14.15689289 -0.35054901 12.62629383 -0.30664062 11.09570312 C-0.2011494 7.39722207 -0.09947934 3.69864823 0 0 Z " fill="#FF374F" transform="translate(245,159)"/>
</svg>
