<?xml version="1.0" standalone="no"?>
<!DOCTYPE svg PUBLIC "-//W3C//DTD SVG 20010904//EN"
 "http://www.w3.org/TR/2001/REC-SVG-20010904/DTD/svg10.dtd">
<svg version="1.0" xmlns="http://www.w3.org/2000/svg"
 width="512.000000pt" height="512.000000pt" viewBox="0 0 512.000000 512.000000"
 preserveAspectRatio="xMidYMid meet">

<g transform="translate(0.000000,512.000000) scale(0.100000,-0.100000)"
fill="#fff" stroke="none">
<path fill="#fff" d="M605 4949 c-92 -18 -205 -81 -279 -155 -219 -219 -220 -568 -2 -786
114 -114 233 -163 396 -163 115 0 170 14 272 68 119 62 230 205 265 339 l17
68 425 0 425 0 -47 -48 c-26 -26 -47 -51 -47 -55 0 -11 97 -107 108 -107 4 0
65 57 134 128 l127 127 11 -65 c34 -198 185 -367 390 -436 76 -26 244 -26 320
0 189 64 331 210 377 388 l17 68 256 0 c273 0 343 -7 460 -46 126 -42 215 -99
320 -204 166 -166 250 -365 250 -590 0 -225 -84 -424 -250 -590 -135 -135
-278 -210 -460 -239 -41 -7 -315 -11 -740 -11 l-674 0 47 48 c26 26 47 52 47
58 0 13 -93 104 -106 104 -5 0 -67 -57 -136 -128 l-127 -127 -11 65 c-29 166
-149 325 -303 399 -263 127 -559 44 -717 -201 -38 -57 -80 -164 -80 -200 0
-16 -10 -18 -104 -18 -288 0 -538 -101 -732 -295 -390 -390 -390 -1020 1
-1410 85 -86 168 -144 289 -201 135 -64 231 -85 419 -91 l159 -6 -48 -48 -49
-49 58 -58 57 -57 130 130 129 130 11 -65 c34 -198 185 -367 390 -436 76 -26
244 -26 320 0 189 64 331 210 377 388 l17 68 425 0 425 0 -47 -48 c-26 -26
-47 -51 -47 -55 0 -11 97 -107 108 -107 4 0 65 57 134 128 l127 127 11 -65
c34 -198 185 -367 390 -436 76 -26 244 -26 320 0 134 45 255 138 317 243 133
227 100 503 -82 686 -218 220 -569 221 -789 1 -79 -80 -138 -191 -156 -294
l-11 -65 -127 127 c-69 71 -131 128 -137 128 -13 0 -105 -92 -105 -105 0 -5
21 -31 47 -57 l47 -48 -427 0 c-405 0 -427 1 -427 18 0 36 -43 143 -81 202
-195 302 -609 347 -863 94 -79 -80 -138 -191 -156 -294 l-11 -65 -127 127
c-69 71 -131 128 -137 128 -13 0 -105 -92 -105 -105 0 -5 21 -31 48 -58 l47
-49 -155 5 c-116 4 -173 11 -228 26 -323 94 -559 357 -611 681 -41 253 41 517
220 705 164 172 346 252 602 262 131 6 137 5 137 -14 0 -37 42 -143 81 -203
73 -114 174 -190 309 -236 76 -26 244 -26 320 0 215 72 361 244 395 461 l6 41
129 -131 130 -130 57 57 58 58 -49 49 -49 50 719 4 c697 3 721 4 799 24 180
48 345 142 469 266 305 305 381 768 190 1150 -132 264 -368 453 -659 529 -70
18 -117 22 -382 25 -278 4 -303 6 -303 22 0 35 -43 143 -81 201 -195 302 -609
347 -863 94 -79 -80 -138 -191 -156 -294 l-11 -65 -127 127 c-69 71 -131 128
-137 128 -13 0 -105 -92 -105 -105 0 -5 21 -31 47 -57 l47 -48 -427 0 c-405 0
-427 1 -427 18 0 36 -43 143 -81 202 -102 158 -257 248 -444 255 -49 2 -112 0
-140 -6z m279 -187 c91 -42 149 -100 194 -190 35 -72 37 -81 37 -172 0 -91 -2
-100 -37 -172 -45 -91 -103 -147 -196 -191 -61 -29 -76 -32 -162 -32 -86 0
-101 3 -162 32 -93 44 -151 100 -196 191 -35 72 -37 81 -37 171 0 87 3 102 32
163 40 85 97 147 172 186 78 42 122 52 213 48 61 -3 92 -11 142 -34z m2240 0
c91 -42 149 -100 194 -190 35 -72 37 -81 37 -172 0 -91 -2 -100 -37 -172 -45
-91 -103 -147 -196 -191 -61 -29 -76 -32 -162 -32 -86 0 -101 3 -162 32 -93
44 -151 100 -196 191 -35 72 -37 81 -37 171 0 87 3 102 32 163 40 85 97 147
172 186 78 42 122 52 213 48 61 -3 92 -11 142 -34z m-1120 -1840 c91 -42 149
-100 194 -190 35 -72 37 -81 37 -172 0 -91 -2 -100 -37 -172 -45 -91 -103
-147 -196 -191 -61 -29 -76 -32 -162 -32 -86 0 -101 3 -162 32 -93 44 -151
100 -196 191 -35 72 -37 81 -37 171 0 87 3 102 32 163 40 85 97 147 172 186
78 42 122 52 213 48 61 -3 92 -11 142 -34z m320 -1840 c91 -42 149 -100 194
-190 35 -72 37 -81 37 -172 0 -91 -2 -100 -37 -172 -45 -91 -103 -147 -196
-191 -61 -29 -76 -32 -162 -32 -86 0 -101 3 -162 32 -93 44 -151 100 -196 191
-35 72 -37 81 -37 171 0 87 3 102 32 163 40 85 97 147 172 186 78 42 122 52
213 48 61 -3 92 -11 142 -34z m2240 0 c91 -42 149 -100 194 -190 35 -72 37
-81 37 -172 0 -91 -2 -100 -37 -172 -45 -91 -103 -147 -196 -191 -61 -29 -76
-32 -162 -32 -86 0 -101 3 -162 32 -93 44 -151 100 -196 191 -35 72 -37 81
-37 171 0 87 3 102 32 163 40 85 97 147 172 186 78 42 122 52 213 48 61 -3 92
-11 142 -34z"/>
</g>
</svg>
