<?xml version="1.0" encoding="UTF-8"?>
<svg version="1.1" xmlns="http://www.w3.org/2000/svg" width="512" height="512">
<path d="M0 0 C75.73331102 -0.04033135 75.73331102 -0.04033135 107.44140625 -0.04882812 C114.69807945 -0.05078575 121.95475263 -0.05280616 129.21142578 -0.05493164 C130.57552607 -0.05532726 130.57552607 -0.05532726 131.96718395 -0.05573088 C146.61398924 -0.06007021 161.26079057 -0.06794849 175.90759352 -0.0771528 C190.95945502 -0.08653217 206.01131447 -0.09206465 221.06317878 -0.09408849 C230.33738411 -0.09545485 239.61157824 -0.09975708 248.88578013 -0.10791647 C255.26110756 -0.11323685 261.63642928 -0.11479236 268.01175877 -0.11350138 C271.67997679 -0.1128662 275.34817536 -0.1137811 279.01638985 -0.11920547 C319.78303444 -0.17640351 319.78303444 -0.17640351 338.4375 2.6875 C340.1395459 2.94587646 340.1395459 2.94587646 341.87597656 3.20947266 C374.29807977 8.42813002 403.04715893 21.47592489 427 44 C427.59039062 44.5259375 428.18078125 45.051875 428.7890625 45.59375 C454.33747065 69.32592061 466.13013279 107.78853288 467.90625 141.66796875 C467.95265625 143.31732422 467.95265625 143.31732422 468 145 C468.02578125 145.70592285 468.0515625 146.4118457 468.078125 147.13916016 C469.18568399 180.44207454 460.87509328 210.22972055 438.22265625 235.08984375 C413.35695014 261.4806127 376.59039109 276.71892962 341 281 C347.42290913 289.49379799 353.88324447 297.94327864 360.625 306.1875 C364.86259832 311.372923 369.08751411 316.56644854 373.25 321.8125 C373.71615723 322.39346436 374.18231445 322.97442871 374.66259766 323.57299805 C376.61868408 326.04974539 377.99278881 327.97836644 379 331 C420.25 331 461.5 331 504 331 C504 376.21 504 421.42 504 468 C463.63875029 468.76575765 463.63875029 468.76575765 446.63085938 468.92773438 C434.91952119 469.04016942 423.21079353 469.17180135 411.50170898 469.43334961 C402.97081336 469.62381378 394.44204892 469.74555266 385.90908605 469.7876814 C381.39703731 469.81228276 376.89107995 469.86928098 372.38100243 470.00887108 C341.35682171 470.93200494 341.35682171 470.93200494 330.99310017 461.46304035 C327.99151859 458.25596173 325.28634744 454.94666327 322.72171974 451.38192177 C317.98363278 444.82699171 312.25138821 439.10860713 306.5234375 433.42578125 C305.81189514 432.71569916 305.10035278 432.00561707 304.36724854 431.27401733 C302.83573478 429.7462827 301.30306785 428.21970338 299.76934814 426.69418335 C297.33649465 424.27419832 294.90687051 421.85101157 292.47802734 419.42700195 C287.32149396 414.28184645 282.16104213 409.14063231 277 404 C271.01516997 398.03883753 265.03199405 392.07603428 259.05303955 386.10897827 C256.6694133 383.73179328 254.2827752 381.35766133 251.89599609 378.98364258 C250.42270231 377.51398425 248.94955038 376.04418368 247.4765625 374.57421875 C246.82077209 373.92359467 246.16498169 373.27297058 245.48931885 372.60263062 C241.68141192 368.79515516 238.07341744 364.86836121 234.55365181 360.79319572 C228.84714198 354.20684931 222.66016292 348.02549749 216.57836914 341.78881836 C214.81755024 339.97102557 213.0694218 338.14085381 211.33422852 336.29858398 C208.80457084 333.61633847 206.2342885 330.97948987 203.65234375 328.34765625 C202.89348373 327.52483658 202.13462372 326.70201691 201.35276794 325.85426331 C193.99302564 318.51635056 191.8921489 319.84943921 180 319 C180 368.17 180 417.34 180 468 C128.19 468 76.38 468 23 468 C23 375.27 23 282.54 23 187 C44.25148438 186.98582031 65.50296875 186.97164062 87.3984375 186.95703125 C100.84245916 186.93698011 114.286462 186.91570345 127.73046875 186.88867188 C134.79215424 186.87453781 141.85384024 186.86071484 148.91552734 186.84741211 C150.24309825 186.84489182 150.24309825 186.84489182 151.59748876 186.84232062 C165.87928938 186.81566121 180.16104985 186.80655938 194.44287281 186.80395857 C209.10375805 186.80089734 223.76452741 186.77893102 238.42536032 186.73947543 C247.46933701 186.71573009 256.51308227 186.70666837 265.55708583 186.71648689 C271.76189404 186.72180938 277.96649517 186.70874123 284.17124443 186.6813371 C287.74925413 186.6660735 291.32680028 186.6587982 294.9048233 186.67340279 C298.79020321 186.68904917 302.6748185 186.66590631 306.56015015 186.63923645 C307.68274243 186.64990971 308.80533471 186.66058297 309.96194494 186.67157966 C317.21915903 186.57878472 322.9991726 185.2572553 329 181 C334.1489985 174.90663236 334.6161563 167.62913524 334 160 C332.76720751 153.93310784 330.584605 149.28560903 326 145 C318.92463053 140.5720679 312.03100349 140.42864079 303.88316345 140.48101807 C302.58098753 140.47351681 301.27881161 140.46601556 299.93717581 140.458287 C296.34308906 140.43811175 292.74939893 140.44255813 289.15528166 140.45119452 C285.27192323 140.45615322 281.38866265 140.43803731 277.50534058 140.42277527 C270.78397794 140.39949336 264.0627231 140.39071338 257.34132195 140.39188385 C247.62342384 140.39355501 237.90566921 140.37319883 228.18780942 140.34752855 C212.419891 140.30647208 196.65199844 140.28314087 180.8840332 140.27099609 C165.57020579 140.25916306 150.25642727 140.23891199 134.94262695 140.20751953 C133.51142223 140.20460126 133.51142223 140.20460126 132.05130428 140.20162404 C124.58893013 140.18634245 117.12655702 140.17057385 109.66418421 140.1546514 C73.10946412 140.07677931 36.55481483 140.04137266 0 140 C0 93.8 0 47.6 0 0 Z " fill="#000000" transform="translate(4,22)"/>
</svg>
