<svg version="1.1" id="Layer_1" xmlns="http://www.w3.org/2000/svg" xmlns:xlink="http://www.w3.org/1999/xlink" x="0px" y="0px"
	 width="100" height="100" viewBox="0 0 512 512" enable-background="new 0 0 512 512" xml:space="preserve">

<path fill="#fff" opacity="1.000000" stroke="none" 
	d="
M513.000000,369.531342 
	C511.045349,372.656219 510.293915,375.909241 508.089020,378.552429 
	C502.137390,385.687012 494.768646,388.126923 485.597809,388.108826 
	C394.604889,387.929108 303.611237,387.915192 212.618484,388.130341 
	C203.455612,388.151978 199.697662,383.139435 199.921738,375.465881 
	C200.232956,364.809113 200.366150,354.119659 199.879303,343.476074 
	C199.517303,335.561951 204.709549,330.862122 212.270569,330.877655 
	C304.096741,331.066193 395.923492,330.963684 487.749786,331.111908 
	C492.139435,331.118988 493.118622,330.099854 493.110291,325.738068 
	C492.959045,246.577530 493.000244,167.416641 492.999573,88.255814 
	C492.999512,81.927101 491.351044,80.232811 484.964569,80.004150 
	C484.132355,79.974350 483.298187,80.000000 482.464905,80.000000 
	C353.141113,80.000000 223.817337,79.999893 94.493561,80.000244 
	C86.272301,80.000267 84.000046,82.242645 84.000023,90.348503 
	C83.999954,112.513535 83.922325,134.679092 84.074661,156.843079 
	C84.100761,160.640305 83.263878,162.449615 79.099167,162.065567 
	C75.628922,161.745560 72.105438,161.972137 68.606064,162.007874 
	C65.537910,162.039185 63.996719,160.598709 63.997425,157.503311 
	C64.003036,132.838470 63.629189,108.165573 64.163429,83.512306 
	C64.415443,71.882996 74.916359,62.050014 85.760101,60.800564 
	C92.050583,60.075752 98.269348,60.042103 104.514587,60.039497 
	C230.838577,59.986767 357.162598,59.976944 483.486542,60.062096 
	C490.445923,60.066788 497.268585,61.110237 503.221069,65.561050 
	C507.839539,69.014420 510.745270,73.361916 512.640259,78.893852 
	C513.000000,175.687561 513.000000,272.375122 513.000000,369.531342 
z"/>
<path fill="#fff" opacity="1.000000" stroke="none" 
	d="
M1.000000,194.468658 
	C5.476979,185.189880 13.226674,182.948685 22.372663,182.964554 
	C67.346672,183.042603 112.321220,182.908051 157.294830,183.063278 
	C168.841644,183.103149 174.531357,186.837860 177.531006,196.094696 
	C178.071198,197.761810 177.982330,199.671478 177.982788,201.469208 
	C178.002747,279.424408 177.911453,357.379791 178.105515,435.334503 
	C178.131485,445.764862 171.113846,453.851044 160.008331,453.904327 
	C113.036415,454.129883 66.062263,454.110321 19.090328,453.887512 
	C11.565569,453.851807 4.624840,451.397705 1.345753,443.091125 
	C1.000000,360.312439 1.000000,277.624878 1.000000,194.468658 
z"/>
<path fill="#fff" opacity="1.000000" stroke="none" 
	d="
M244.000000,452.000000 
	C231.007568,452.000000 218.515106,452.013885 206.022705,451.993530 
	C200.608582,451.984711 199.200027,450.654419 199.023880,445.179230 
	C198.900757,441.352203 198.925568,437.516113 199.021423,433.687500 
	C199.116867,429.874786 200.587555,427.819580 205.012085,427.910370 
	C217.499252,428.166687 229.995117,428.005554 242.487549,427.997406 
	C247.970123,427.993805 248.927948,427.015228 248.993469,421.316101 
	C249.029831,418.151733 249.218750,414.967316 248.941162,411.827087 
	C248.637024,408.386536 250.178421,407.010864 253.342621,407.009094 
	C279.160309,406.994781 304.978058,406.984070 330.795685,407.025665 
	C333.531097,407.030060 335.018341,408.554840 335.003662,411.394745 
	C334.985596,414.892548 335.182098,418.402405 334.954407,421.885376 
	C334.662048,426.358704 336.436127,428.105072 340.985809,428.063324 
	C358.140656,427.905670 375.299713,428.139404 392.452759,427.903473 
	C396.825989,427.843323 398.478943,429.043091 398.075256,433.506805 
	C397.716675,437.471954 398.007660,441.495178 397.998199,445.492737 
	C397.983887,451.533234 397.524017,451.997101 391.411011,451.997620 
	C342.440674,452.001801 293.470337,452.000000 244.000000,452.000000 
z"/>
<path fill="#000" opacity="1.000000" stroke="none" 
	d="
M279.195984,350.456177 
	C281.262695,345.185608 288.662567,342.613739 293.672607,345.256653 
	C298.315186,347.705750 300.416748,354.420776 298.197876,359.271057 
	C295.908905,364.274536 289.500977,367.052551 284.622528,364.814789 
	C280.082611,362.732361 276.060425,355.674805 279.195984,350.456177 
z"/>
<path fill="hsl(266, 94%, 49%)" opacity="1.000000" stroke="none" 
	d="
M163.000000,264.000000 
	C163.000000,314.469513 162.918152,364.439423 163.134384,414.407990 
	C163.154648,419.088989 161.071854,420.394592 157.368835,420.964661 
	C156.229492,421.140106 155.041107,420.999664 153.875183,420.999664 
	C110.568260,421.000061 67.261337,421.001129 23.954418,420.998840 
	C16.701170,420.998444 15.001434,419.304108 15.001194,412.070526 
	C14.999120,349.608612 15.013732,287.146729 14.980555,224.684830 
	C14.976897,217.798019 16.764223,216.875000 22.510679,216.898621 
	C67.149368,217.082199 111.789146,216.997940 156.428589,217.002411 
	C162.531174,217.003036 162.993225,217.463531 162.997253,223.524796 
	C163.006119,236.849869 163.000000,250.174927 163.000000,264.000000 
z"/>
<path fill="#000" opacity="1.000000" stroke="none" 
	d="
M78.100250,201.000000 
	C87.251236,201.000015 95.917206,200.993805 104.583160,201.004807 
	C106.539513,201.007278 109.014412,200.605698 108.920685,203.589645 
	C108.827789,206.546783 106.314972,205.987122 104.399368,205.990799 
	C94.233559,206.010315 84.067581,206.024979 73.901947,205.978699 
	C71.891701,205.969559 68.982742,206.755432 69.103951,203.396606 
	C69.222511,200.110855 72.133469,201.164032 74.116692,201.015793 
	C75.276779,200.929092 76.448654,201.000000 78.100250,201.000000 
z"/>
<path fill="#000" opacity="1.000000" stroke="none" 
	d="
M95.782112,429.419312 
	C97.486214,433.674225 96.042053,438.274750 92.746559,440.051483 
	C89.040184,442.049744 85.223824,440.908112 82.808388,437.496765 
	C80.158417,433.754120 80.821419,430.458618 83.924583,427.661926 
	C87.198845,424.711029 91.892342,425.439392 95.782112,429.419312 
z"/>
</svg>