<?xml version="1.0" standalone="no"?>
<!DOCTYPE svg PUBLIC "-//W3C//DTD SVG 20010904//EN"
 "http://www.w3.org/TR/2001/REC-SVG-20010904/DTD/svg10.dtd">
<svg version="1.0" xmlns="http://www.w3.org/2000/svg"
 width="512.000000pt" height="512.000000pt" viewBox="0 0 512.000000 512.000000"
 preserveAspectRatio="xMidYMid meet">

<g transform="translate(0.000000,512.000000) scale(0.100000,-0.100000)"
fill="#fff" stroke="none">
<path d="M1030 5113 c-57 -21 -85 -94 -55 -148 25 -48 50 -55 204 -55 124 0
141 2 164 20 38 30 52 80 33 123 -23 57 -55 67 -203 66 -70 0 -135 -3 -143 -6z"/>
<path d="M1670 5113 c-57 -21 -85 -94 -55 -148 25 -48 50 -55 204 -55 124 0
141 2 164 20 38 30 52 80 33 123 -23 57 -55 67 -203 66 -70 0 -135 -3 -143 -6z"/>
<path d="M2310 5113 c-57 -21 -85 -94 -55 -148 25 -48 50 -55 204 -55 124 0
141 2 164 20 38 30 52 80 33 123 -23 57 -55 67 -203 66 -70 0 -135 -3 -143 -6z"/>
<path d="M2950 5113 c-57 -21 -85 -94 -55 -148 25 -48 50 -55 204 -55 124 0
141 2 164 20 38 30 52 80 33 123 -23 57 -55 67 -203 66 -70 0 -135 -3 -143 -6z"/>
<path d="M3590 5113 c-57 -21 -85 -94 -55 -148 25 -48 50 -55 204 -55 124 0
141 2 164 20 38 30 52 80 33 123 -23 57 -55 67 -203 66 -70 0 -135 -3 -143 -6z"/>
<path d="M4230 5113 c-57 -21 -85 -94 -55 -148 25 -48 50 -55 204 -55 124 0
141 2 164 20 38 30 52 80 33 123 -23 57 -55 67 -203 66 -70 0 -135 -3 -143 -6z"/>
<path d="M4870 5113 c-89 -35 -89 -161 -1 -196 26 -11 40 -24 49 -49 25 -71
120 -88 173 -32 22 23 24 34 24 125 0 94 -1 100 -28 126 -25 26 -34 28 -115
30 -48 1 -94 0 -102 -4z"/>
<path d="M482 5103 c-10 -4 -331 -398 -465 -571 -5 -7 -10 -31 -10 -53 0 -32
7 -47 31 -72 28 -28 39 -32 102 -35 l70 -4 0 -750 c0 -832 -2 -800 65 -832 46
-22 458 -23 509 -2 70 29 66 -23 66 822 l0 761 73 5 c83 5 111 19 133 66 21
44 14 66 -43 143 -70 96 -393 491 -417 511 -20 17 -85 23 -114 11z m157 -392
c50 -62 91 -117 91 -121 0 -4 -11 -11 -25 -14 -14 -4 -34 -21 -45 -39 -19 -31
-20 -54 -20 -789 l0 -758 -105 0 -105 0 0 751 c0 827 2 803 -61 831 -16 7 -29
16 -29 21 0 16 193 248 201 240 4 -4 48 -59 98 -122z"/>
<path d="M4974 4576 c-57 -25 -64 -45 -64 -198 0 -80 5 -147 11 -162 28 -60
122 -71 170 -20 23 24 24 34 27 164 4 159 -6 192 -63 216 -41 17 -42 17 -81 0z"/>
<path d="M1134 3936 c-41 -18 -64 -52 -64 -96 0 -82 53 -110 210 -110 157 0
210 28 210 110 0 45 -23 78 -66 96 -45 19 -247 18 -290 0z"/>
<path d="M1774 3936 c-41 -18 -64 -52 -64 -96 0 -82 53 -110 210 -110 157 0
210 28 210 110 0 45 -23 78 -66 96 -45 19 -247 18 -290 0z"/>
<path d="M2414 3936 c-41 -18 -64 -52 -64 -96 0 -82 53 -110 210 -110 157 0
210 28 210 110 0 45 -23 78 -66 96 -45 19 -247 18 -290 0z"/>
<path d="M3054 3936 c-41 -18 -64 -52 -64 -96 0 -82 53 -110 210 -110 157 0
210 28 210 110 0 45 -23 78 -66 96 -45 19 -247 18 -290 0z"/>
<path d="M3694 3936 c-41 -18 -64 -52 -64 -96 0 -45 23 -78 66 -96 22 -9 39
-26 48 -48 18 -43 51 -66 96 -66 72 0 110 55 110 161 0 76 -21 122 -65 143
-41 20 -148 20 -191 2z"/>
<path d="M4974 3936 c-57 -25 -64 -45 -64 -198 0 -80 5 -147 11 -162 28 -60
122 -71 170 -20 23 24 24 34 27 164 4 159 -6 192 -63 216 -41 17 -42 17 -81 0z"/>
<path d="M3781 3394 c-39 -28 -51 -73 -51 -194 0 -157 28 -210 110 -210 82 0
110 53 110 210 0 157 -28 210 -110 210 -20 0 -46 -7 -59 -16z"/>
<path d="M4974 3296 c-57 -25 -64 -45 -64 -198 0 -80 5 -147 11 -162 28 -60
122 -71 170 -20 23 24 24 34 27 164 4 159 -6 192 -63 216 -41 17 -42 17 -81 0z"/>
<path d="M3781 2754 c-39 -28 -51 -73 -51 -194 0 -157 28 -210 110 -210 82 0
110 53 110 210 0 157 -28 210 -110 210 -20 0 -46 -7 -59 -16z"/>
<path d="M4974 2656 c-57 -25 -64 -45 -64 -198 0 -80 5 -147 11 -162 28 -60
122 -71 170 -20 23 24 24 34 27 164 4 159 -6 192 -63 216 -41 17 -42 17 -81 0z"/>
<path d="M329 2532 c-39 -20 -62 -41 -84 -77 l-30 -48 -3 -346 c-4 -412 -2
-432 67 -501 36 -36 59 -50 99 -60 l52 -12 0 -103 0 -102 -36 -6 c-58 -10
-121 -53 -151 -105 l-28 -47 -3 -345 c-4 -412 -2 -431 68 -500 37 -38 58 -50
101 -60 40 -8 393 -10 1360 -8 l1306 3 48 30 c36 22 57 45 77 84 l28 53 0 355
c0 253 -4 368 -12 397 -18 60 -83 120 -146 137 l-52 13 0 103 0 103 28 5 c58
12 117 51 147 100 l30 48 3 361 c2 264 0 373 -9 406 -16 56 -79 121 -135 138
-32 9 -345 12 -1357 12 l-1315 0 -53 -28z m2659 -504 l2 -318 -1280 0 -1280 0
0 320 0 320 1278 -2 1277 -3 3 -317z m-218 -643 l0 -105 -1065 0 -1065 0 0
105 0 105 1065 0 1065 0 0 -105z m218 -637 l2 -318 -1280 0 -1280 0 0 320 0
320 1278 -2 1277 -3 3 -317z"/>
<path d="M693 2118 c-57 -28 -67 -122 -17 -169 24 -23 34 -24 164 -27 160 -4
192 6 216 65 19 43 5 93 -33 123 -23 18 -40 20 -167 19 -77 0 -151 -5 -163
-11z"/>
<path d="M2614 2119 c-34 -17 -57 -66 -51 -106 12 -74 89 -113 152 -78 93 49
61 196 -42 194 -21 0 -47 -5 -59 -10z"/>
<path d="M693 838 c-57 -28 -67 -122 -17 -169 24 -23 34 -24 164 -27 160 -4
192 6 216 65 19 43 5 93 -33 123 -23 18 -40 20 -167 19 -77 0 -151 -5 -163
-11z"/>
<path d="M2614 839 c-34 -17 -57 -66 -51 -106 12 -74 89 -113 152 -78 93 49
61 196 -42 194 -21 0 -47 -5 -59 -10z"/>
<path d="M3781 2114 c-39 -28 -51 -73 -51 -194 0 -157 28 -210 110 -210 82 0
110 53 110 210 0 157 -28 210 -110 210 -20 0 -46 -7 -59 -16z"/>
<path d="M4974 2016 c-57 -25 -64 -45 -64 -198 0 -80 5 -147 11 -162 28 -60
122 -71 170 -20 23 24 24 34 27 164 4 159 -6 192 -63 216 -41 17 -42 17 -81 0z"/>
<path d="M3781 1474 c-39 -28 -51 -73 -51 -194 0 -157 28 -210 110 -210 82 0
110 53 110 210 0 157 -28 210 -110 210 -20 0 -46 -7 -59 -16z"/>
<path d="M4974 1376 c-57 -25 -64 -45 -64 -198 0 -80 5 -147 11 -162 28 -60
122 -71 170 -20 23 24 24 34 27 164 4 159 -6 192 -63 216 -41 17 -42 17 -81 0z"/>
<path d="M4433 1054 c-42 -21 -63 -68 -63 -143 l0 -61 -443 0 c-491 0 -475 2
-503 -66 -21 -51 -20 -463 2 -509 30 -65 34 -65 513 -65 l431 0 0 -55 c0 -71
20 -120 59 -139 42 -22 72 -20 115 9 78 53 522 412 549 444 31 37 36 84 11
120 -22 30 -559 459 -591 472 -33 12 -42 11 -80 -7z m278 -415 c63 -50 118
-94 122 -99 5 -4 -48 -53 -117 -108 l-126 -101 -16 34 c-30 65 -33 65 -513 65
l-431 0 0 105 0 105 438 0 c417 0 438 1 469 20 18 11 35 31 39 45 3 14 10 25
14 25 4 0 59 -41 121 -91z"/>
</g>
</svg>
