
<svg version="1.0" xmlns="http://www.w3.org/2000/svg"
 width="60" height="60" viewBox="0 0 601.000000 601.000000"
 preserveAspectRatio="xMidYMid meet">

<g transform="translate(0.000000,601.000000) scale(0.100000,-0.100000)"
fill="#fff" stroke="none">
<path  d="M2850 5994 c-554 -36 -1082 -214 -1540 -520 -319 -212 -589 -483
-809 -809 -276 -409 -439 -867 -491 -1378 -18 -176 -8 -575 19 -747 161 -1021
793 -1850 1736 -2277 384 -174 901 -276 1317 -259 643 26 1221 227 1714 597
393 294 686 647 898 1084 185 379 280 779 293 1230 37 1321 -787 2499 -2047
2928 -187 63 -373 104 -605 132 -124 15 -389 25 -485 19z m159 -462 c38 -125
95 -185 207 -218 l59 -17 -35 -15 c-98 -43 -119 -54 -149 -84 -40 -39 -78
-113 -87 -167 -7 -46 -24 -65 -24 -28 0 38 -31 119 -62 162 -36 50 -95 90
-165 112 l-54 17 73 26 c41 14 88 36 105 48 38 27 92 131 100 191 3 22 7 41 8
41 2 0 12 -31 24 -68z m951 -196 c0 -7 -16 -28 -36 -46 l-36 -31 -34 38 c-18
21 -33 42 -34 46 0 5 15 26 33 48 l32 39 38 -40 c20 -21 37 -46 37 -54z
m-1590 -56 c0 -9 -16 -32 -36 -51 l-35 -34 -35 37 c-19 21 -34 43 -34 50 0 7
15 30 33 50 l32 37 38 -36 c20 -21 37 -44 37 -53z m-576 -94 c9 -37 53 -84 91
-98 19 -6 35 -14 35 -18 0 -3 -19 -13 -41 -23 -41 -20 -89 -78 -89 -110 0 -10
-4 -15 -10 -12 -5 3 -10 15 -10 26 0 28 -66 97 -101 104 -38 9 -37 18 4 33 44
16 87 58 94 93 7 35 19 37 27 5z m1883 -224 c29 -59 74 -96 137 -113 l39 -11
-57 -23 c-87 -35 -121 -73 -151 -169 -7 -23 -13 -32 -14 -21 -2 36 -48 120
-80 148 -18 14 -54 34 -81 44 l-48 17 69 33 c60 29 73 41 99 86 16 28 32 65
36 82 l7 30 9 -25 c5 -14 21 -49 35 -78z m622 -29 c17 -21 31 -42 31 -48 -1
-5 -16 -27 -35 -48 l-33 -38 -36 38 c-19 21 -36 43 -36 48 0 13 59 85 70 85 5
0 22 -17 39 -37z m-2899 -148 c0 -6 -16 -26 -35 -45 l-35 -34 -42 42 -42 42
39 40 39 40 38 -37 c21 -20 38 -42 38 -48z m1202 -49 c223 -43 435 -169 583
-345 100 -118 187 -300 210 -438 l7 -43 -972 0 -971 0 6 58 c20 168 128 376
262 503 155 147 299 221 528 272 48 11 279 6 347 -7z m-1562 -285 c0 -18 -59
-81 -74 -80 -6 0 -26 18 -44 41 l-32 41 37 42 38 42 38 -36 c20 -19 37 -42 37
-50z m3969 -2 l33 -39 -33 -39 c-19 -22 -37 -40 -41 -40 -10 -1 -77 71 -78 84
0 13 62 75 74 74 6 0 26 -18 45 -40z m-790 -280 c259 -60 486 -280 552 -537
27 -106 28 -358 2 -364 -10 -2 -75 -2 -145 0 l-126 4 -4 113 c-3 125 -10 139
-73 169 -27 13 -77 16 -289 16 l-256 0 -6 26 c-4 15 -4 70 -1 123 10 167 -16
191 -206 191 l-124 0 -6 44 c-5 37 -44 159 -72 227 -6 15 23 16 332 12 286 -4
351 -8 422 -24z m-3535 -251 c25 -86 66 -141 127 -172 29 -14 61 -26 71 -26
33 0 18 -15 -32 -33 -89 -31 -142 -93 -170 -197 l-12 -45 -15 55 c-7 30 -25
72 -39 93 -29 44 -102 94 -151 103 -46 9 -41 18 16 33 90 23 157 100 176 204
4 20 9 37 10 37 2 0 10 -24 19 -52z m4700 -103 c33 -43 89 -81 134 -90 42 -9
41 -19 -6 -33 -86 -26 -145 -92 -178 -197 -7 -24 -14 -34 -17 -25 -26 80 -44
117 -71 148 -31 35 -115 82 -148 82 -10 0 -18 5 -18 10 0 6 8 10 18 10 11 0
47 14 80 31 68 34 95 70 127 169 l18 54 17 -61 c9 -34 29 -78 44 -98z m-1677
-41 l30 -6 5 -103 c6 -118 23 -163 76 -203 l35 -27 254 -5 254 -5 3 -75 c7
-127 23 -152 136 -210 139 -73 226 -160 287 -286 60 -125 65 -179 61 -671 l-3
-438 -27 -68 c-68 -170 -189 -285 -357 -337 -62 -20 -94 -20 -1476 -20 -1381
0 -1414 0 -1477 20 -125 38 -257 147 -316 259 -71 135 -67 80 -67 956 0 788 0
790 22 860 60 190 201 327 363 354 60 10 2149 15 2197 5z m1204 -634 c144 -28
275 -149 329 -306 44 -126 36 -285 -20 -399 -37 -78 -124 -173 -188 -208 l-50
-27 -4 268 -4 267 -32 93 c-36 105 -76 172 -150 253 -29 31 -52 60 -52 63 0
10 112 7 171 -4z m-3923 -705 l-3 -235 -45 30 c-148 98 -230 251 -230 434 0
183 83 347 225 442 l50 34 3 -235 c1 -129 1 -341 0 -470z m-523 642 c20 -29
19 -70 -2 -90 -65 -58 -153 8 -112 84 21 41 87 44 114 6z m5157 6 c25 -30 29
-53 13 -83 -17 -33 -63 -47 -95 -30 -38 21 -47 80 -18 118 16 18 82 15 100 -5z
m-4937 -1158 c14 -13 25 -36 25 -50 0 -32 -41 -75 -72 -75 -70 1 -98 102 -38
135 36 21 58 18 85 -10z m4711 2 c52 -45 24 -127 -43 -127 -32 0 -73 42 -73
75 0 31 41 75 69 75 11 0 32 -11 47 -23z m-1774 -973 c57 -29 96 -112 84 -178
-8 -44 -50 -94 -93 -112 -18 -8 -66 -14 -107 -14 -62 0 -74 3 -77 18 -2 9 -3
81 -1 159 l3 142 27 4 c43 6 135 -5 164 -19z m-1836 -59 c25 -10 34 -20 32
-32 -3 -14 -14 -18 -50 -18 -59 0 -84 -20 -44 -35 15 -5 34 -10 42 -10 21 0
74 -54 74 -75 0 -9 -13 -30 -29 -46 -23 -23 -38 -29 -71 -29 -47 0 -100 24
-100 45 0 23 16 26 64 13 36 -10 47 -9 61 2 16 13 16 15 -1 27 -10 7 -26 13
-36 13 -33 0 -75 29 -82 55 -10 38 14 78 54 92 45 15 45 15 86 -2z m741 -97
c64 -132 66 -142 32 -146 -19 -2 -28 3 -37 23 -11 23 -17 25 -76 25 -60 0 -64
-2 -70 -25 -5 -20 -13 -25 -36 -25 -17 0 -30 4 -30 9 0 12 99 223 113 239 5 7
20 12 31 10 16 -2 34 -30 73 -110z m-516 80 c1 -13 2 -34 3 -48 1 -23 5 -25
59 -28 56 -3 57 -3 57 25 0 52 11 73 36 73 l25 0 -3 -122 -3 -123 -25 0 c-23
0 -25 4 -28 48 l-3 47 -60 0 -59 0 0 -50 c0 -47 -2 -50 -25 -50 l-25 0 0 125
0 125 25 0 c19 0 25 -6 26 -22z m886 -2 c36 -31 39 -93 6 -128 l-22 -24 19
-29 c26 -40 25 -45 -7 -45 -20 1 -34 10 -48 33 -16 24 -28 32 -50 32 -27 0
-31 -4 -35 -35 -4 -27 -10 -35 -25 -35 -19 0 -20 8 -23 128 l-3 127 80 0 c70
0 83 -3 108 -24z m353 -1 c0 -23 -3 -24 -67 -27 -60 -3 -68 -5 -68 -23 0 -17
8 -20 53 -23 47 -3 52 -5 52 -26 0 -27 -34 -38 -83 -29 -26 5 -28 3 -25 -18 3
-22 8 -24 70 -27 49 -2 68 -7 72 -18 11 -29 -5 -34 -100 -34 l-94 0 0 125 0
125 95 0 c94 0 95 0 95 -25z m742 -6 c51 -41 66 -93 43 -142 -48 -102 -199
-101 -242 0 -22 53 -11 101 32 141 29 27 42 32 83 32 38 0 55 -6 84 -31z m332
12 c33 -28 -5 -56 -53 -38 -82 31 -130 -80 -56 -129 26 -17 29 -17 61 1 27 15
36 16 49 5 23 -19 18 -38 -15 -55 -51 -26 -105 -20 -145 18 -20 17 -39 46 -44
63 -11 41 9 100 46 131 24 20 37 23 85 20 31 -2 63 -9 72 -16z"/>
<path  d="M2353 4339 c-110 -14 -253 -99 -253 -150 0 -22 33 -59 53 -59 7 0 35
14 62 31 96 61 186 78 280 53 101 -26 120 -27 139 -9 26 27 16 66 -23 92 -58
39 -155 55 -258 42z"/>
<path d="M1482 3424 c-24 -17 -30 -62 -10 -82 8 -8 53 -12 134 -12 98 0 126 3
138 16 22 21 20 50 -4 74 -18 18 -33 20 -128 20 -81 0 -113 -4 -130 -16z"/>
<path d="M2838 3194 c-122 -29 -264 -122 -338 -221 -162 -214 -172 -499 -24
-715 121 -178 300 -272 514 -271 104 0 200 26 293 79 116 65 231 207 278 344
30 89 36 232 15 324 -51 217 -239 404 -461 461 -72 18 -200 18 -277 -1z m206
-376 c54 -16 131 -93 145 -144 28 -100 2 -196 -68 -256 -149 -127 -372 -25
-371 171 1 164 142 274 294 229z"/>
<path  d="M1663 2010 c-31 -13 -40 -55 -18 -80 15 -16 31 -20 90 -20 62 0 74
-3 93 -23 30 -32 29 -77 -3 -107 -31 -29 -33 -75 -5 -90 24 -13 44 -4 81 37
39 41 49 66 49 120 0 57 -23 99 -75 139 -31 23 -47 28 -113 31 -42 1 -87 -1
-99 -7z"/>
<path  d="M4157 2009 c-53 -12 -84 -36 -112 -84 -36 -60 -34 -118 6 -178 32
-49 69 -68 98 -50 26 16 25 42 -3 83 -31 48 -32 69 -5 104 19 24 27 26 92 26
77 0 88 4 104 34 14 26 -2 62 -31 70 -30 8 -104 6 -149 -5z"/>
<path  d="M3490 810 l0 -100 40 0 c46 0 95 21 104 45 3 9 6 37 6 61 0 63 -34
94 -101 94 l-49 0 0 -100z"/>
<path d="M2436 806 c-3 -13 -9 -31 -12 -40 -5 -13 1 -16 25 -16 36 0 35 -3 16
44 -18 43 -21 44 -29 12z"/>
<path d="M2769 840 c-1 -5 -1 -17 -1 -25 0 -40 1 -41 49 -35 51 5 67 26 43 55
-14 17 -89 21 -91 5z"/>
<path d="M3865 825 c-29 -28 -31 -45 -10 -84 14 -28 33 -41 62 -41 22 0 73 55
73 80 0 29 -44 70 -75 70 -14 0 -37 -11 -50 -25z"/>
</g>
</svg>
